<mxfile host="app.diagrams.net" modified="2023-09-02T03:33:38.276Z" agent="Mozilla/5.0 (Windows NT 10.0; Win64; x64) AppleWebKit/537.36 (KHTML, like Gecko) Chrome/116.0.0.0 Safari/537.36" version="21.7.2" etag="7pGYIH-g7fEfzA5cpdxs" type="github">
  <diagram name="ページ1" id="dE1Zl4kCSqn2A6MVBedl">
    <mxGraphModel>
      <root>
        <mxCell id="0" />
        <mxCell id="1" parent="0" />
      </root>
    </mxGraphModel>
  </diagram>
</mxfile>
